<svg width="56" height="56" viewBox="0 0 56 56" fill="none" xmlns="http://www.w3.org/2000/svg">
<rect width="56" height="56" rx="12" fill="#DCF2ED"/>
<path d="M33.8102 20.47C33.7302 20.47 33.6502 20.45 33.5802 20.41C31.6602 19.42 30.0002 19 28.0102 19C26.0302 19 24.1502 19.47 22.4402 20.41C22.2002 20.54 21.9002 20.45 21.7602 20.21C21.6302 19.97 21.7202 19.66 21.9602 19.53C23.8202 18.52 25.8602 18 28.0102 18C30.1402 18 32.0002 18.47 34.0402 19.52C34.2902 19.65 34.3802 19.95 34.2502 20.19C34.1602 20.37 33.9902 20.47 33.8102 20.47ZM19.5002 25.72C19.4002 25.72 19.3002 25.69 19.2102 25.63C18.9802 25.47 18.9302 25.16 19.0902 24.93C20.0802 23.53 21.3402 22.43 22.8402 21.66C25.9802 20.04 30.0002 20.03 33.1502 21.65C34.6502 22.42 35.9102 23.51 36.9002 24.9C37.0602 25.12 37.0102 25.44 36.7802 25.6C36.5502 25.76 36.2402 25.71 36.0802 25.48C35.1802 24.22 34.0402 23.23 32.6902 22.54C29.8202 21.07 26.1502 21.07 23.2902 22.55C21.9302 23.25 20.7902 24.25 19.8902 25.51C19.8102 25.65 19.6602 25.72 19.5002 25.72ZM25.7502 37.79C25.6202 37.79 25.4902 37.74 25.4002 37.64C24.5302 36.77 24.0602 36.21 23.3902 35C22.7002 33.77 22.3402 32.27 22.3402 30.66C22.3402 27.69 24.8802 25.27 28.0002 25.27C31.1202 25.27 33.6602 27.69 33.6602 30.66C33.6602 30.94 33.4402 31.16 33.1602 31.16C32.8802 31.16 32.6602 30.94 32.6602 30.66C32.6602 28.24 30.5702 26.27 28.0002 26.27C25.4302 26.27 23.3402 28.24 23.3402 30.66C23.3402 32.1 23.6602 33.43 24.2702 34.51C24.9102 35.66 25.3502 36.15 26.1202 36.93C26.3102 37.13 26.3102 37.44 26.1202 37.64C26.0102 37.74 25.8802 37.79 25.7502 37.79ZM32.9202 35.94C31.7302 35.94 30.6802 35.64 29.8202 35.05C28.3302 34.04 27.4402 32.4 27.4402 30.66C27.4402 30.38 27.6602 30.16 27.9402 30.16C28.2202 30.16 28.4402 30.38 28.4402 30.66C28.4402 32.07 29.1602 33.4 30.3802 34.22C31.0902 34.7 31.9202 34.93 32.9202 34.93C33.1602 34.93 33.5602 34.9 33.9602 34.83C34.2302 34.78 34.4902 34.96 34.5402 35.24C34.5902 35.51 34.4102 35.77 34.1302 35.82C33.5602 35.93 33.0602 35.94 32.9202 35.94ZM30.9102 38C30.8702 38 30.8202 37.99 30.7802 37.98C29.1902 37.54 28.1502 36.95 27.0602 35.88C25.6602 34.49 24.8902 32.64 24.8902 30.66C24.8902 29.04 26.2702 27.72 27.9702 27.72C29.6702 27.72 31.0502 29.04 31.0502 30.66C31.0502 31.73 31.9802 32.6 33.1302 32.6C34.2802 32.6 35.2102 31.73 35.2102 30.66C35.2102 26.89 31.9602 23.83 27.9602 23.83C25.1202 23.83 22.5202 25.41 21.3502 27.86C20.9602 28.67 20.7602 29.62 20.7602 30.66C20.7602 31.44 20.8302 32.67 21.4302 34.27C21.5302 34.53 21.4002 34.82 21.1402 34.91C20.8802 35.01 20.5902 34.87 20.5002 34.62C20.0102 33.31 19.7702 32.01 19.7702 30.66C19.7702 29.46 20.0002 28.37 20.4502 27.42C21.7802 24.63 24.7302 22.82 27.9602 22.82C32.5102 22.82 36.2102 26.33 36.2102 30.65C36.2102 32.27 34.8302 33.59 33.1302 33.59C31.4302 33.59 30.0502 32.27 30.0502 30.65C30.0502 29.58 29.1202 28.71 27.9702 28.71C26.8202 28.71 25.8902 29.58 25.8902 30.65C25.8902 32.36 26.5502 33.96 27.7602 35.16C28.7102 36.1 29.6202 36.62 31.0302 37.01C31.3002 37.08 31.4502 37.36 31.3802 37.62C31.3302 37.85 31.1202 38 30.9102 38Z" fill="#20484F"/>
</svg>
