<svg width="203" height="22" viewBox="0 0 203 22" fill="none" xmlns="http://www.w3.org/2000/svg">
<path d="M202.38 1.89021V21.1083L189.199 7.33117V19.9852H186.453V0.667236L199.659 14.4693V1.89021H202.38Z" fill="#20484F"/>
<path d="M171.923 1.51562C171.923 1.51562 169.252 1.54058 167.105 2.81347C167.105 2.81347 164.958 4.0614 163.71 6.20783C163.71 6.20783 162.437 8.32931 162.412 10.9999C162.412 10.9999 162.437 13.6455 163.685 15.742C163.685 15.742 164.958 17.8385 167.08 19.0615C167.08 19.0615 169.227 20.3094 171.923 20.3344C171.923 20.3344 174.545 20.3094 176.667 19.0365C176.667 19.0365 178.789 17.7886 180.037 15.6671C180.037 15.6671 181.31 13.5456 181.335 10.925C181.335 10.925 181.31 8.30435 180.037 6.18287C180.037 6.18287 178.789 4.0614 176.667 2.81347C176.667 2.81347 174.545 1.54058 171.923 1.51562ZM171.898 4.08636C171.898 4.08636 173.821 4.11131 175.319 5.00982C175.319 5.00982 176.816 5.90833 177.69 7.4308C177.69 7.4308 178.589 8.97823 178.589 10.95C178.589 10.95 178.564 12.8468 177.69 14.3942C177.69 14.3942 176.791 15.9167 175.269 16.8152C175.269 16.8152 173.771 17.7387 171.898 17.7387C171.898 17.7387 170.001 17.7137 168.478 16.8402C168.478 16.8402 166.956 15.9417 166.057 14.4192C166.057 14.4192 165.183 12.8718 165.158 10.95C165.158 10.95 165.183 9.00319 166.057 7.45576C166.057 7.45576 166.931 5.90833 168.453 5.00982C168.453 5.00982 169.976 4.11131 171.898 4.08636Z" fill="#20484F"/>
<path d="M155.772 4.43596V19.9851H153.026V4.43596H148.882V1.86523H159.941V4.43596H155.772Z" fill="#20484F"/>
<path d="M146.31 4.43596H142.141V19.9851H139.395V4.43596H135.251V1.86523H146.31V4.43596Z" fill="#20484F"/>
<path d="M130.559 1.86523V19.9851H127.812V1.86523H130.559Z" fill="#20484F"/>
<path d="M121.422 1.86523V13.5209C121.422 13.5209 121.397 15.4926 120.548 17.0151C120.548 17.0151 119.674 18.5375 118.176 19.4361C118.176 19.4361 116.679 20.3096 114.756 20.3346C114.756 20.3346 112.809 20.3096 111.286 19.4361C111.286 19.4361 109.788 18.5375 108.915 17.0151C108.915 17.0151 108.066 15.4926 108.041 13.5209V1.86523H110.787V12.7721C110.787 12.7721 110.787 13.9452 110.912 14.644C110.912 14.644 111.037 15.3429 111.361 15.8919C111.361 15.8919 111.861 16.7655 112.759 17.2397C112.759 17.2397 113.658 17.7389 114.756 17.7389C114.756 17.7389 115.83 17.7389 116.728 17.2397C116.728 17.2397 117.602 16.7655 118.126 15.8919C118.126 15.8919 118.451 15.3429 118.576 14.644L118.676 12.7721V1.86523H121.422Z" fill="#20484F"/>
<path d="M87.6943 1.86523H90.69L95.6829 14.4194L100.751 1.86523H103.746L95.6329 21.3329L87.6943 1.86523Z" fill="#20484F"/>
<path d="M71.7682 4.46073C71.7682 4.46073 71.169 4.08636 70.2454 4.08636C70.2454 4.08636 69.097 4.11131 68.3731 4.73528C68.3731 4.73528 67.6491 5.35924 67.6241 6.33263C67.6241 6.33263 67.5992 7.25609 68.4729 7.8551L68.9223 8.1546L69.6213 8.47906L71.3937 9.20286C71.3937 9.20286 73.5656 10.1014 74.5891 11.3743C74.5891 11.3743 75.6376 12.6721 75.6127 14.4691C75.6127 14.4691 75.6127 16.1663 74.8637 17.4891C74.8637 17.4891 74.1398 18.7869 72.8416 19.5607C72.8416 19.5607 71.5435 20.3094 69.8959 20.3344C69.8959 20.3344 67.4494 20.3094 65.9266 18.9367C65.9266 18.9367 64.4038 17.539 64.0293 14.9932L66.8003 14.3443L67 15.5673C67 15.5673 67.1248 16.0165 67.3246 16.341C67.3246 16.341 67.6741 16.9899 68.3731 17.3643C68.3731 17.3643 69.0721 17.7387 69.9208 17.7387C69.9208 17.7387 71.219 17.7137 72.0428 16.8901C72.0428 16.8901 72.8666 16.0665 72.8916 14.7437C72.8916 14.7437 72.8666 13.1962 71.6434 12.3476C71.6434 12.3476 70.9943 11.9233 70.2953 11.6488L68.5728 10.9C68.5728 10.9 64.8281 9.35261 64.8531 6.33263C64.8531 6.33263 64.8531 4.93495 65.5771 3.86173C65.5771 3.86173 66.2761 2.78851 67.4993 2.16455C67.4993 2.16455 68.7226 1.54058 70.2703 1.51562C70.2703 1.51562 71.893 1.51562 73.0663 2.23942C73.0663 2.23942 74.2646 2.96322 75.1633 4.56057L72.9665 5.88337C72.9665 5.88337 72.3673 4.86007 71.7682 4.46073Z" fill="#20484F"/>
<path d="M58.5615 1.86523V19.9851H55.8154V1.86523H58.5615Z" fill="#20484F"/>
<path d="M46.6786 1.86523H49.4247V13.5209C49.4247 13.5209 49.3997 15.4926 48.551 17.0151C48.551 17.0151 47.6772 18.5375 46.1794 19.4361C46.1794 19.4361 44.6815 20.3096 42.7593 20.3346C42.7593 20.3346 40.8121 20.3096 39.2893 19.4361C39.2893 19.4361 37.7914 18.5375 36.9177 17.0151C36.9177 17.0151 36.0689 15.4926 36.0439 13.5209V1.86523H38.79V12.7721C38.79 12.7721 38.79 13.9452 38.9148 14.644C38.9148 14.644 39.0396 15.3429 39.3642 15.8919C39.3642 15.8919 39.8635 16.7655 40.7622 17.2397C40.7622 17.2397 41.6609 17.7389 42.7593 17.7389C42.7593 17.7389 43.8327 17.7389 44.7315 17.2397C44.7315 17.2397 45.6052 16.7655 46.1294 15.8919C46.1294 15.8919 46.454 15.3429 46.5788 14.644L46.6786 12.7721V1.86523Z" fill="#20484F"/>
<path d="M21.1656 1.51562C21.1656 1.51562 18.4945 1.54058 16.3475 2.81347C16.3475 2.81347 14.2006 4.0614 12.9524 6.20783C12.9524 6.20783 11.6793 8.32931 11.6543 10.9999C11.6543 10.9999 11.6793 13.6455 12.9275 15.742C12.9275 15.742 14.2006 17.8385 16.3226 19.0615C16.3226 19.0615 18.4695 20.3094 21.1656 20.3344C21.1656 20.3344 23.7868 20.3094 25.9088 19.0365C25.9088 19.0365 28.0307 17.7886 29.2789 15.6671C29.2789 15.6671 30.5521 13.5456 30.5771 10.925C30.5771 10.925 30.5521 8.30435 29.2789 6.18287C29.2789 6.18287 28.0307 4.0614 25.9088 2.81347C25.9088 2.81347 23.7868 1.54058 21.1656 1.51562ZM21.1406 4.08636C21.1406 4.08636 23.0629 4.11131 24.5607 5.00982C24.5607 5.00982 26.0586 5.90833 26.9323 7.4308C26.9323 7.4308 27.8061 8.97823 27.831 10.95C27.831 10.95 27.8061 12.8468 26.9323 14.3942C26.9323 14.3942 26.0336 15.9167 24.5108 16.8152C24.5108 16.8152 23.013 17.7387 21.1406 17.7387C21.1406 17.7387 19.2434 17.7137 17.7206 16.8402C17.7206 16.8402 16.1978 15.9417 15.2991 14.4192C15.2991 14.4192 14.4253 12.8718 14.4003 10.95C14.4003 10.95 14.4253 9.00319 15.2991 7.45576C15.2991 7.45576 16.1728 5.90833 17.6956 5.00982C17.6956 5.00982 19.2184 4.11131 21.1406 4.08636Z" fill="#20484F"/>
<path d="M3.36617 1.86523V17.3895H8.68352V19.9851H0.620117V1.86523H3.36617Z" fill="#20484F"/>
</svg>
