<svg width="150" height="30" viewBox="0 0 150 30" fill="none" xmlns="http://www.w3.org/2000/svg">
<g clip-path="url(#clip0_9_241)">
<path d="M11.7495 4.5822C9.99062 4.5822 9.46294 5.35613 9.46294 7.07986V9.9293H14.1768L13.7195 14.5728H9.46294V28.6089H3.79925V14.5728H0V9.96447H3.79925V7.18539C3.79925 2.47151 5.69887 0.0090332 10.9404 0.0090332C12.031 0.0090332 13.1567 0.0793897 14.2472 0.220103V4.5822" fill="#20484F"/>
<path d="M14.5635 18.6886C14.5635 13.4822 17.026 9.54224 22.2324 9.54224C25.0466 9.54224 26.7704 10.9845 27.6146 12.8138V9.96437H33.0321V28.644H27.5795V25.8298C26.8055 27.6238 25.0115 29.031 22.1972 29.031C17.026 29.031 14.5283 25.1262 14.5283 19.8846L14.5635 18.6886ZM20.2272 19.955C20.2272 22.7341 21.2474 24.5985 23.8857 24.5985C26.2075 24.5985 27.3684 22.91 27.3684 20.2364V18.3368C27.3684 15.6632 26.1723 13.9747 23.8857 13.9747C21.2474 13.9747 20.2272 15.804 20.2272 18.6182V19.955Z" fill="#20484F"/>
<path d="M44.7814 9.54224C46.9624 9.54224 49.0731 9.99955 50.1988 10.8087L48.9324 14.819C47.7715 14.2561 46.4699 13.9747 45.1683 13.9747C42.1078 13.9747 40.7711 15.7336 40.7711 18.7589V19.8495C40.7711 22.8748 42.1078 24.6337 45.1683 24.6337C46.4699 24.6337 47.7715 24.3171 48.9324 23.7542L50.1988 27.7646C49.0731 28.5385 46.9976 29.031 44.7814 29.031C38.1327 29.031 35.1426 25.478 35.1426 19.7439V18.8645C35.1426 13.1304 38.1327 9.54224 44.7814 9.54224Z" fill="#20484F"/>
<path d="M50.9375 19.9902V18.3368C50.9375 13.0249 53.9628 9.54224 60.119 9.54224C65.9234 9.54224 68.4914 13.0601 68.4914 18.2664V21.2566H56.6012C56.7067 23.8246 57.8676 24.9503 60.9985 24.9503C63.0388 24.9503 65.0791 24.5633 67.0139 23.8246L68.0341 27.6942C66.5566 28.4681 63.4961 29.0662 60.7874 29.0662C53.611 29.031 50.9375 25.478 50.9375 19.9902ZM56.6012 17.5277H63.4258V17.0704C63.4258 15.03 62.6166 13.4118 60.119 13.4118C57.5862 13.4118 56.6012 15.03 56.6012 17.5277Z" fill="#20484F"/>
<path d="M89.4579 19.8847C89.4579 25.0911 86.9603 29.031 81.7539 29.031C78.9396 29.031 76.9696 27.6239 76.1957 25.8298V28.6441H70.8486V0.571841L76.5123 0.0793457V12.5676C77.3214 10.9142 79.1507 9.57747 81.7891 9.57747C86.9603 9.57747 89.4931 13.4823 89.4931 18.7238L89.4579 19.8847ZM83.7942 18.5831C83.7942 15.9447 82.7741 13.9747 80.0653 13.9747C77.7436 13.9747 76.5123 15.6281 76.5123 18.3017V20.2717C76.5123 22.9452 77.7787 24.5986 80.0653 24.5986C82.7741 24.5986 83.7942 22.6286 83.7942 19.9902V18.5831Z" fill="#20484F"/>
<path d="M91.3223 19.7439V18.7941C91.3223 13.4118 94.3828 9.54224 100.609 9.54224C106.836 9.54224 109.897 13.4118 109.897 18.7941V19.7439C109.897 25.1262 106.836 28.9958 100.609 28.9958C94.3828 28.9958 91.3223 25.1614 91.3223 19.7439ZM104.268 18.4072C104.268 15.9447 103.248 13.9747 100.609 13.9747C97.971 13.9747 96.9508 15.9447 96.9508 18.4072V20.1661C96.9508 22.6285 97.971 24.5985 100.609 24.5985C103.248 24.5985 104.268 22.6285 104.268 20.1661V18.4072Z" fill="#20484F"/>
<path d="M111.831 19.7439V18.7941C111.831 13.4118 114.892 9.54224 121.118 9.54224C127.345 9.54224 130.405 13.4118 130.405 18.7941V19.7439C130.405 25.1262 127.345 28.9958 121.118 28.9958C114.892 28.9958 111.831 25.1614 111.831 19.7439ZM124.777 18.4072C124.777 15.9447 123.756 13.9747 121.118 13.9747C118.48 13.9747 117.46 15.9447 117.46 18.4072V20.1661C117.46 22.6285 118.48 24.5985 121.118 24.5985C123.756 24.5985 124.777 22.6285 124.777 20.1661V18.4072Z" fill="#20484F"/>
<path d="M138.18 18.8645L143.774 9.92928H149.754L143.914 19.1812L150 28.6441H143.985L138.18 19.4978V28.6441H132.552V0.571863L138.18 0.0441895" fill="#20484F"/>
</g>
<defs>
<clipPath id="clip0_9_241">
<rect width="150" height="29.04" fill="white"/>
</clipPath>
</defs>
</svg>
