<svg width="129" height="33" viewBox="0 0 129 33" fill="none" xmlns="http://www.w3.org/2000/svg">
<path d="M41.5741 25.3905L43.1665 21.6968C44.8859 22.9799 47.1663 23.6459 49.4216 23.6459C51.0919 23.6459 52.1384 23.005 52.1384 22.0292C52.1133 19.315 42.164 21.4409 42.091 14.6217C42.0659 11.1625 45.1412 8.4922 49.4996 8.4922C52.0894 8.4922 54.678 9.13437 56.5257 10.5993L55.0377 14.367C53.3472 13.2884 51.2441 12.5196 49.2442 12.5196C47.8833 12.5196 46.989 13.1617 46.989 13.9795C47.0141 16.6447 57.0364 15.1848 57.1395 21.6968C57.1395 25.2338 54.1434 27.7222 49.8341 27.7222C46.6795 27.7222 43.7803 26.9784 41.5741 25.3893V25.3905ZM102.578 20.3636C102.081 21.2474 101.304 21.9416 100.368 22.3373C99.4328 22.733 98.392 22.8078 97.4093 22.5499C96.4266 22.292 95.5576 21.716 94.9387 20.9124C94.3198 20.1088 93.9859 19.123 93.9896 18.1097C93.988 17.5076 94.1055 16.911 94.3354 16.3542C94.5653 15.7974 94.9031 15.2913 95.3294 14.8649C95.7558 14.4385 96.2623 14.1001 96.82 13.8692C97.3777 13.6383 97.9755 13.5193 98.5794 13.5192C100.294 13.5192 101.783 14.4699 102.579 15.8521L106.961 13.4163C105.32 10.4965 102.165 8.4922 98.5794 8.4922C93.2677 8.4922 88.9634 12.8043 88.9634 18.1097C88.9634 23.4151 93.2677 27.7222 98.5794 27.7222C100.291 27.7258 101.972 27.2707 103.447 26.4044C104.921 25.5382 106.135 24.2926 106.961 22.798L102.578 20.3648V20.3636ZM59.3457 0.520267H64.8348V27.3647H59.3457V0.52152V0.520267ZM109.119 0.520267V27.3647H114.601V19.315L121.117 27.3647H128.143L119.859 17.8012L127.528 8.87976H120.807L114.601 16.2873V0.52152H109.117L109.119 0.520267ZM81.1411 20.4175C80.3462 21.7257 78.7047 22.6952 76.857 22.6952C76.2536 22.6949 75.6563 22.5759 75.0991 22.3453C74.5419 22.1146 74.0357 21.7766 73.6096 21.3508C73.1834 20.9249 72.8457 20.4195 72.6155 19.8633C72.3854 19.3072 72.2675 18.7113 72.2685 18.1097C72.2673 17.5078 72.3851 16.9116 72.6151 16.3551C72.8451 15.7986 73.1828 15.2928 73.6089 14.8665C74.035 14.4402 74.5412 14.1018 75.0985 13.8706C75.6558 13.6394 76.2534 13.52 76.857 13.5192C78.7047 13.5192 80.3462 14.5426 81.1411 15.8759V20.4175ZM81.1411 8.87851V11.0609C80.243 9.54576 78.0117 8.4922 75.6784 8.4922C70.8585 8.4922 67.0649 12.7503 67.0649 18.0808C67.0649 23.4164 70.8585 27.7222 75.6784 27.7222C78.0117 27.7222 80.243 26.6686 81.1411 25.1598V27.3409H86.6302V8.87851H81.1411ZM7.65339 20.3874C7.65339 22.26 6.14025 23.7738 4.26736 23.7738C3.82201 23.7735 3.38109 23.6856 2.96984 23.5152C2.55859 23.3447 2.18508 23.0951 1.8707 22.7805C1.55631 22.466 1.30721 22.0927 1.13766 21.6821C0.968108 21.2714 0.881431 20.8315 0.882589 20.3874C0.881762 19.9437 0.96871 19.5042 1.13846 19.094C1.3082 18.6839 1.55741 18.3112 1.87182 17.9972C2.18622 17.6832 2.55964 17.4342 2.97071 17.2643C3.38177 17.0944 3.8224 17.0071 4.26736 17.0072H7.65339V20.3886V20.3874ZM9.34264 20.3874C9.34181 19.9436 9.4288 19.504 9.59862 19.0937C9.76845 18.6835 10.0178 18.3107 10.3323 17.9967C10.6468 17.6827 11.0204 17.4337 11.4316 17.2639C11.8428 17.0941 12.2836 17.0069 12.7287 17.0072C13.1737 17.0071 13.6145 17.0944 14.0256 17.2644C14.4368 17.4343 14.8102 17.6835 15.1247 17.9976C15.4391 18.3117 15.6883 18.6846 15.8579 19.0949C16.0276 19.5052 16.1144 19.9448 16.1134 20.3886V28.8497C16.1144 29.2937 16.0276 29.7335 15.858 30.144C15.6884 30.5545 15.4393 30.9277 15.1249 31.2421C14.8105 31.5565 14.4371 31.806 14.0259 31.9764C13.6147 32.1467 13.1739 32.2346 12.7287 32.2349C12.2832 32.2347 11.8422 32.147 11.4308 31.9766C11.0194 31.8062 10.6457 31.5566 10.3312 31.2421C10.0167 30.9275 9.76746 30.5542 9.59783 30.1435C9.4282 29.7327 9.34148 29.2927 9.34264 28.8485V20.3886V20.3874ZM12.7287 6.80274C12.2832 6.80258 11.8422 6.7148 11.4308 6.54444C11.0194 6.37407 10.6457 6.12446 10.3312 5.8099C10.0167 5.49534 9.76746 5.12201 9.59783 4.71128C9.4282 4.30055 9.34148 3.8605 9.34264 3.4163C9.34181 2.9725 9.4288 2.53289 9.59862 2.12266C9.76845 1.71243 10.0178 1.33965 10.3323 1.02565C10.6468 0.711659 11.0204 0.462632 11.4316 0.292834C11.8428 0.123035 12.2836 0.035803 12.7287 0.0361337C13.1736 0.035968 13.6143 0.12332 14.0253 0.293192C14.4364 0.463065 14.8098 0.712121 15.1242 1.0261C15.4386 1.34007 15.6878 1.71281 15.8576 2.12295C16.0273 2.5331 16.1143 2.9726 16.1134 3.4163V6.80274H12.7287ZM12.7287 8.5223C13.1736 8.52214 13.6143 8.60949 14.0253 8.77936C14.4364 8.94923 14.8098 9.19829 15.1242 9.51227C15.4386 9.82624 15.6878 10.199 15.8576 10.6091C16.0273 11.0193 16.1143 11.4588 16.1134 11.9025C16.1134 13.7738 14.6003 15.2889 12.7287 15.2889H4.24346C3.798 15.2887 3.35695 15.201 2.94555 15.0306C2.53416 14.8602 2.16051 14.6106 1.84598 14.2961C1.53146 13.9815 1.28225 13.6082 1.11262 13.1975C0.942993 12.7867 0.856275 12.3467 0.857433 11.9025C0.856606 11.4587 0.943595 11.0191 1.11342 10.6088C1.28324 10.1986 1.53257 9.82581 1.8471 9.51182C2.16164 9.19783 2.53521 8.9488 2.94642 8.779C3.35763 8.6092 3.79839 8.52197 4.24346 8.5223H12.7287ZM26.2942 11.9025C26.2933 11.4588 26.3803 11.0193 26.55 10.6091C26.7198 10.199 26.969 9.82624 27.2834 9.51227C27.5978 9.19829 27.9712 8.94923 28.3823 8.77936C28.7934 8.60949 29.234 8.52214 29.679 8.5223C30.124 8.52197 30.5648 8.6092 30.976 8.779C31.3872 8.9488 31.7608 9.19783 32.0753 9.51182C32.3898 9.82581 32.6392 10.1986 32.809 10.6088C32.9788 11.0191 33.0658 11.4587 33.065 11.9025C33.065 13.7738 31.5518 15.2889 29.679 15.2889H26.2942V11.9025ZM24.6037 11.9025C24.6037 13.7738 23.0905 15.2889 21.2189 15.2889C20.7734 15.2887 20.3324 15.201 19.921 15.0306C19.5096 14.8602 19.1359 14.6106 18.8214 14.2961C18.5069 13.9815 18.2577 13.6082 18.0881 13.1975C17.9184 12.7867 17.8317 12.3467 17.8329 11.9025V3.4163C17.832 2.9725 17.919 2.53289 18.0889 2.12266C18.2587 1.71243 18.508 1.33965 18.8225 1.02565C19.1371 0.711659 19.5107 0.462632 19.9219 0.292834C20.3331 0.123035 20.7738 0.035803 21.2189 0.0361337C21.6639 0.035968 22.1045 0.12332 22.5156 0.293192C22.9266 0.463065 23.3 0.712121 23.6144 1.0261C23.9289 1.34007 24.1781 1.71281 24.3478 2.12295C24.5176 2.5331 24.6045 2.9726 24.6037 3.4163V11.9025ZM21.2189 25.4683C21.664 25.4681 22.1047 25.5555 22.5158 25.7255C22.927 25.8954 23.3005 26.1446 23.6149 26.4587C23.9293 26.7728 24.1785 27.1457 24.3482 27.556C24.5178 27.9663 24.6047 28.4059 24.6037 28.8497C24.6047 29.2937 24.5179 29.7335 24.3482 30.144C24.1786 30.5545 23.9295 30.9277 23.6151 31.2421C23.3008 31.5565 22.9273 31.806 22.5161 31.9764C22.105 32.1467 21.6642 32.2346 21.2189 32.2349C20.7734 32.2347 20.3324 32.147 19.921 31.9766C19.5096 31.8062 19.1359 31.5566 18.8214 31.2421C18.5069 30.9275 18.2577 30.5542 18.0881 30.1435C17.9184 29.7327 17.8317 29.2927 17.8329 28.8485V25.4683H21.2189ZM21.2189 23.7738C20.7734 23.7737 20.3324 23.6859 19.921 23.5155C19.5096 23.3452 19.1359 23.0955 18.8214 22.781C18.5069 22.4664 18.2577 22.0931 18.0881 21.6824C17.9184 21.2716 17.8317 20.8316 17.8329 20.3874C17.832 19.9436 17.919 19.504 18.0889 19.0937C18.2587 18.6835 18.508 18.3107 18.8225 17.9967C19.1371 17.6827 19.5107 17.4337 19.9219 17.2639C20.3331 17.0941 20.7738 17.0069 21.2189 17.0072H29.7041C30.1492 17.0071 30.5899 17.0944 31.0011 17.2644C31.4122 17.4343 31.7857 17.6835 32.1001 17.9976C32.4145 18.3117 32.6637 18.6846 32.8334 19.0949C33.003 19.5052 33.0899 19.9448 33.0889 20.3886C33.0899 20.8326 33.0031 21.2724 32.8334 21.683C32.6638 22.0935 32.4147 22.4666 32.1003 22.781C31.786 23.0954 31.4125 23.3449 31.0013 23.5153C30.5902 23.6856 30.1494 23.7735 29.7041 23.7738H21.2189Z" fill="#20484F"/>
</svg>
