<svg width="144" height="25" viewBox="0 0 144 25" fill="none" xmlns="http://www.w3.org/2000/svg">
<path d="M130.331 2.05148H143.285V4.78917H140.735C139.654 4.78917 138.759 5.1641 138.032 5.91565L129.368 15.1589V19.6362C129.368 20.3877 129.74 20.7626 130.5 20.7626H133.709V23.5003H118.087V20.7626H121.312C122.072 20.7626 122.427 20.3877 122.427 19.6362V15.4494L113.543 5.91565C112.817 5.1641 111.922 4.78917 110.841 4.78917H108.308V2.05148H124.217V4.78917H122.63C122.258 4.78917 122.005 4.92259 121.887 5.19112C121.785 5.45965 121.819 5.70116 122.022 5.91565L127.274 11.5194L132.527 5.91565C132.712 5.70116 132.763 5.45965 132.645 5.19112C132.543 4.92259 132.29 4.78917 131.902 4.78917H130.331V2.05148ZM101.738 23.5003H97.3133L79.6999 8.42871V19.6362C79.6999 20.3877 80.0765 20.7626 80.8247 20.7626H84.0488V23.5003H70.8755V20.7626H74.0962C74.8477 20.7626 75.2227 20.3877 75.2227 19.6362V5.91565C75.2227 5.1641 74.8477 4.78917 74.0962 4.78917H70.8755V2.05148H81.9191L97.2457 15.1589V5.91565C97.2457 5.1641 96.8742 4.78917 96.1311 4.78917H92.9053V2.05148H106.079V4.78917H102.853C102.093 4.78917 101.738 5.1641 101.738 5.91565V23.5003ZM51.4246 0.715576C41.3875 0.715576 34.7418 5.88188 34.7418 12.7759C34.7418 19.6699 41.3875 24.8362 51.4246 24.8362C61.4633 24.8362 68.1091 19.6699 68.1091 12.7759C68.1091 5.88188 61.4633 0.715576 51.4246 0.715576ZM51.4246 3.93121C57.182 3.93121 60.9921 7.71938 60.9921 12.7759C60.9921 17.8307 57.182 21.6206 51.4246 21.6206C45.6689 21.6206 41.8571 17.8307 41.8571 12.7759C41.8571 7.71938 45.6689 3.93121 51.4246 3.93121ZM25.74 1.79646H28.4777V9.04009H25.74C24.3754 4.54934 17.5912 3.87717 13.3369 3.87717C9.61624 3.87717 6.83634 4.85503 6.83634 6.74489C6.83634 8.92862 12.0702 8.99111 16.3025 9.56364C21.7526 10.3017 29.7005 10.175 29.7005 17.2987C29.7005 22.9193 22.2356 24.8261 17.5608 24.8362C9.19064 24.8548 6.59314 22.4448 4.67794 22.4448C4.14595 22.4448 3.87235 22.9582 3.87235 23.985H1.13466V15.8564H3.87235C4.90088 20.7559 12.4333 21.8233 15.6084 21.8233C17.858 21.8233 23.6475 21.3825 23.6475 18.7073C23.6475 16.1722 19.932 16.304 15.4193 15.6605C10.4725 14.9529 0.71582 14.7992 0.71582 8.22098C0.71582 3.14419 6.40399 0.715576 12.7863 0.715576C20.1988 0.715576 23.8637 3.12224 24.9615 3.12224C25.4799 3.12224 25.74 2.64597 25.74 1.79646Z" fill="#20484F"/>
</svg>
